<?xml version="1.0" standalone="no"?>
<!DOCTYPE svg PUBLIC "-//W3C//DTD SVG 20010904//EN"
 "http://www.w3.org/TR/2001/REC-SVG-20010904/DTD/svg10.dtd">
<svg version="1.0" xmlns="http://www.w3.org/2000/svg"
 width="1024.000000pt" height="559.000000pt" viewBox="0 0 1024.000000 559.000000"
 preserveAspectRatio="xMidYMid meet">

<g transform="translate(0.000000,559.000000) scale(0.100000,-0.100000)"
fill="#000000" stroke="none">
<path d="M4871 4588 c-6 -18 -18 -67 -27 -108 -9 -41 -20 -80 -25 -86 -6 -7
-31 -15 -56 -19 -26 -4 -73 -15 -105 -25 l-58 -18 -62 72 c-34 39 -69 79 -79
90 -17 18 -21 17 -142 -49 -185 -101 -171 -79 -132 -213 l34 -113 -77 -75
c-42 -41 -82 -74 -88 -74 -6 0 -55 16 -110 35 l-99 35 -17 -23 c-39 -49 -148
-241 -148 -260 0 -6 39 -48 87 -92 l86 -80 -21 -65 c-11 -36 -24 -83 -29 -104
-9 -44 -9 -44 -158 -75 l-80 -17 -7 -39 c-9 -51 -10 -156 -2 -232 l7 -61 81
-17 c148 -31 153 -33 161 -74 3 -20 16 -66 27 -103 l21 -66 -86 -82 c-48 -45
-87 -86 -87 -90 0 -23 160 -280 174 -280 5 0 56 16 112 36 57 19 112 33 122
30 15 -5 24 6 47 56 16 35 50 107 76 161 l46 97 -49 98 c-72 143 -91 227 -92
397 -1 117 3 155 23 230 68 264 255 486 500 597 100 46 241 78 344 78 l87 0 0
280 -1 280 -94 0 -93 0 -11 -32z"/>
<path d="M5448 4143 c6 -2 18 -2 25 0 6 3 1 5 -13 5 -14 0 -19 -2 -12 -5z"/>
<path d="M4905 3788 c-29 -62 -102 -219 -163 -348 -61 -129 -134 -284 -162
-345 -108 -229 -220 -464 -275 -580 -31 -66 -110 -232 -175 -370 -65 -137
-137 -290 -161 -340 -25 -49 -50 -102 -56 -117 l-13 -28 223 0 223 0 44 93
c122 260 151 323 210 454 l64 141 295 4 c326 5 369 12 504 79 33 16 61 28 62
27 1 -2 34 -73 73 -158 39 -85 92 -202 119 -260 27 -58 78 -167 113 -243 l63
-137 223 0 223 0 -18 43 c-11 23 -48 103 -84 177 -88 184 -148 310 -192 405
-43 92 -83 176 -225 475 -56 118 -113 241 -127 273 l-27 57 -24 -47 c-76 -151
-206 -262 -379 -325 -49 -17 -89 -21 -251 -26 l-193 -4 14 33 c17 39 113 250
161 354 18 39 52 114 76 168 23 53 45 99 49 101 4 3 30 -48 58 -112 120 -270
155 -347 164 -356 10 -11 108 63 142 107 40 53 86 141 102 194 l15 49 -143
305 c-79 167 -149 319 -156 337 l-13 32 -165 0 -164 0 -54 -112z"/>
<path d="M6191 3434 c0 -11 3 -14 6 -6 3 7 2 16 -1 19 -3 4 -6 -2 -5 -13z"/>
<path d="M5790 3081 c0 -6 4 -13 10 -16 6 -3 7 1 4 9 -7 18 -14 21 -14 7z"/>
<path d="M4653 2058 c-15 -19 -23 -48 -15 -48 4 0 13 14 19 30 12 32 11 37 -4
18z"/>
<path d="M4720 1611 c0 -11 4 -22 9 -25 4 -3 6 6 3 19 -5 30 -12 33 -12 6z"/>
<path d="M4725 1459 c-4 -6 -5 -12 -2 -15 2 -3 7 2 10 11 7 17 1 20 -8 4z"/>
<path d="M4723 1416 c1 -11 9 -21 17 -23 10 -3 11 -2 4 4 -6 4 -14 15 -17 23
-5 11 -6 9 -4 -4z"/>
<path d="M4888 1113 c7 -3 16 -2 19 1 4 3 -2 6 -13 5 -11 0 -14 -3 -6 -6z"/>
<path d="M5328 1113 c6 -2 18 -2 25 0 6 3 1 5 -13 5 -14 0 -19 -2 -12 -5z"/>
</g>
</svg>
