<svg xmlns="http://www.w3.org/2000/svg" viewBox="0 0 32 32">
  <rect width="32" height="32" rx="8" fill="#4F46E5"/>
  <path d="M16 6c-1.2 0-2.2.4-3 1C12 7.6 11.4 8.7 11.2 10c-1.2.4-2.2 1.2-2.8 2.2-.7 1.2-.9 2.5-.5 3.5-.8 1-1.2 2.2-1.2 3.5 0 1.4.5 2.7 1.4 3.7 1 1 2.2 1.5 3.6 1.5.6 0 1.2-.1 1.8-.3.5.7 1.4 1.1 2.5 1.1s2-.4 2.5-1.1c.6.2 1.2.3 1.8.3 1.4 0 2.6-.5 3.6-1.5.9-1 1.4-2.3 1.4-3.7 0-1.3-.4-2.5-1.2-3.5.4-1 .2-2.3-.5-3.5-.6-1-1.6-1.8-2.8-2.2-.2-1.3-.8-2.4-1.8-3C18.2 6.4 17.2 6 16 6z" fill="white" opacity="0.9"/>
  <circle cx="13" cy="16" r="1.5" fill="#4F46E5"/>
  <circle cx="19" cy="16" r="1.5" fill="#4F46E5"/>
  <circle cx="16" cy="12" r="1.5" fill="#4F46E5"/>
  <circle cx="16" cy="20" r="1.5" fill="#4F46E5"/>
  <line x1="13" y1="16" x2="16" y2="12" stroke="#4F46E5" stroke-width="1.2"/>
  <line x1="19" y1="16" x2="16" y2="12" stroke="#4F46E5" stroke-width="1.2"/>
  <line x1="13" y1="16" x2="19" y2="16" stroke="#4F46E5" stroke-width="1.2"/>
  <line x1="13" y1="16" x2="16" y2="20" stroke="#4F46E5" stroke-width="1.2"/>
  <line x1="19" y1="16" x2="16" y2="20" stroke="#4F46E5" stroke-width="1.2"/>
</svg>
