<svg xmlns="http://www.w3.org/2000/svg" viewBox="0 0 40 40" fill="none">
  <rect width="40" height="40" rx="10" fill="#4F46E5"/>
  <path d="M20 8c-1.5 0-2.8.5-3.8 1.3C15 10.2 14.2 11.5 14 13c-1.5.5-2.7 1.5-3.5 2.8C9.8 17.2 9.5 18.8 10 20.2c-1 1.2-1.5 2.7-1.5 4.3 0 1.8.7 3.4 1.8 4.6 1.2 1.2 2.8 1.9 4.5 1.9.8 0 1.5-.1 2.2-.4.7.9 1.8 1.4 3 1.4s2.3-.5 3-1.4c.7.3 1.4.4 2.2.4 1.7 0 3.3-.7 4.5-1.9 1.1-1.2 1.8-2.8 1.8-4.6 0-1.6-.5-3.1-1.5-4.3.5-1.4.2-3-.5-4.4-.8-1.3-2-2.3-3.5-2.8-.2-1.5-1-2.8-2.2-3.7C22.8 8.5 21.5 8 20 8z" fill="white" opacity="0.9"/>
  <circle cx="16" cy="20" r="2" fill="#4F46E5"/>
  <circle cx="24" cy="20" r="2" fill="#4F46E5"/>
  <circle cx="20" cy="15" r="2" fill="#4F46E5"/>
  <line x1="16" y1="20" x2="20" y2="15" stroke="#4F46E5" stroke-width="1.5" stroke-linecap="round"/>
  <line x1="24" y1="20" x2="20" y2="15" stroke="#4F46E5" stroke-width="1.5" stroke-linecap="round"/>
  <line x1="16" y1="20" x2="24" y2="20" stroke="#4F46E5" stroke-width="1.5" stroke-linecap="round"/>
  <circle cx="20" cy="25" r="2" fill="#4F46E5"/>
  <line x1="16" y1="20" x2="20" y2="25" stroke="#4F46E5" stroke-width="1.5" stroke-linecap="round"/>
  <line x1="24" y1="20" x2="20" y2="25" stroke="#4F46E5" stroke-width="1.5" stroke-linecap="round"/>
</svg>
